# xmcd CD database file
#
# Track frame offsets:
#	300
#	13022
#	25712
#	37850
#	51470
#	63492
#	77112
#	88697
#	106553
#	124682
#	138725
#	152920
#	165342
#	177652
#	190745
#	202425
#	219830
#	232635
#	245240
#	260912
#
# Disc length: 3661 seconds
#
# Revision: 7
# Processed by: cddbd v1.5.2PL0 Copyright (c) Steve Scherf et al.
# Submitted via: CDex 1.70beta3
#
DISCID=190e4914
DTITLE=Otis Redding - The Otis Redding Story - Disc 1 Of 3
DYEAR=1987
DGENRE=Soul
TTITLE0=You Don't Miss Your Water
TTITLE1=Satisfaction
TTITLE2=Ole Man Trouble
TTITLE3=Down In The Valley
TTITLE4=I Can't Turn You Loose
TTITLE5=Just One More Day
TTITLE6=Papa's Got A Brand New Bag
TTITLE7=Good To Me
TTITLE8=Cigarettes And Coffee
TTITLE9=Chain Gang
TTITLE10=My Lover's Prayer
TTITLE11=It's Growing
TTITLE12=Fa-Fa-Fa-Fa-Fa (Sad Song)
TTITLE13=I'm Sick Y'all
TTITLE14=Sweet Lorene
TTITLE15=Try A Little Tenderness
TTITLE16=Day Tripper
TTITLE17=Ton Of Joy
TTITLE18=Hawg For You
TTITLE19=Tramp
EXTD=YEAR: 1987
EXTT0=
EXTT1=
EXTT2=
EXTT3=
EXTT4=
EXTT5=
EXTT6=
EXTT7=
EXTT8=
EXTT9=
EXTT10=
EXTT11=
EXTT12=
EXTT13=
EXTT14=
EXTT15=
EXTT16=
EXTT17=
EXTT18=
EXTT19=
PLAYORDER=
